<?xml version="1.0" encoding="UTF-8" standalone="no"?>
<svg width="24px" height="24px" viewBox="0 0 24 24" version="1.1" xmlns="http://www.w3.org/2000/svg" xmlns:xlink="http://www.w3.org/1999/xlink" xmlns:sketch="http://www.bohemiancoding.com/sketch/ns">
    <!-- Generator: Sketch 3.1.1 (8761) - http://www.bohemiancoding.com/sketch -->
    <title>own-goal</title>
    <desc>Created with Sketch.</desc>
    <defs>
        <path id="path-1" d="M7.5,15 C11.6421358,15 15,11.6421358 15,7.5 C15,3.35786417 11.6421358,0 7.5,0 C3.35786417,0 0,3.35786417 0,7.5 C0,11.6421358 3.35786417,15 7.5,15 Z"></path>
    </defs>
    <g id="Icons" stroke="none" stroke-width="1" fill="none" fill-rule="evenodd" sketch:type="MSPage">
        <g id="own-goal" sketch:type="MSArtboardGroup">
            <g id="Soccer-ball" sketch:type="MSLayerGroup" transform="translate(1.000000, 1.000000)">
                <mask id="mask-2" sketch:name="Oval 1" fill="white">
                    <use xlink:href="#path-1"></use>
                </mask>
                <use id="Oval-1" stroke="#000000" fill="#FFFFFF" sketch:type="MSShapeGroup" xlink:href="#path-1"></use>
                <path d="M8.96946313,5.47745751 L9.87764129,8.27254249 L7.5,10 L5.12235871,8.27254249 L6.03053687,5.47745751 L8.96946313,5.47745751 Z" id="Polygon-1" fill-opacity="0.899999976" fill="#000000" sketch:type="MSShapeGroup" mask="url(#mask-2)"></path>
                <path d="M8.96946313,2.52254249 L9.87764129,-0.272542486 L7.5,-2 L5.12235871,-0.272542486 L6.03053687,2.52254249 L8.96946313,2.52254249 Z" id="Polygon-1-copy" fill-opacity="0.899999976" fill="#000000" sketch:type="MSShapeGroup" mask="url(#mask-2)"></path>
                <path d="M3.5,11 L5.87764129,12.7274575 L4.96946313,15.5225425 L2.03053687,15.5225425 L1.12235871,12.7274575 L3.5,11 Z" id="Polygon-1-copy-2" fill-opacity="0.899999976" fill="#000000" sketch:type="MSShapeGroup" mask="url(#mask-2)"></path>
                <path d="M11.5,11 L9.12235871,12.7274575 L10.0305369,15.5225425 L12.9694631,15.5225425 L13.8776413,12.7274575 L11.5,11 Z" id="Polygon-1-copy-3" fill-opacity="0.899999976" fill="#000000" sketch:type="MSShapeGroup" mask="url(#mask-2)"></path>
                <path d="M-0.969463131,7.52254249 L1.96946313,7.52254249 L2.87764129,4.72745751 L0.5,3 L-1.87764129,4.72745751 L-0.969463131,7.52254249 Z" id="Polygon-1-copy-3" fill-opacity="0.899999976" fill="#000000" sketch:type="MSShapeGroup" mask="url(#mask-2)"></path>
                <path d="M15.9694631,7.52254249 L13.0305369,7.52254249 L12.1223587,4.72745751 L14.5,3 L16.8776413,4.72745751 L15.9694631,7.52254249 Z" id="Polygon-1-copy-4" fill-opacity="0.899999976" fill="#000000" sketch:type="MSShapeGroup" mask="url(#mask-2)"></path>
            </g>
            <g id="Own-goal" sketch:type="MSLayerGroup" transform="translate(7.000000, 7.000000)">
                <circle id="Oval-11" stroke-opacity="0.899999976" stroke="#000000" stroke-width="2" fill="#FFFFFF" sketch:type="MSShapeGroup" cx="8" cy="8" r="8"></circle>
                <text id="OG" fill-opacity="0.899999976" fill="#000000" sketch:type="MSTextLayer" font-family="Roboto 2 DRAFT" font-size="9" font-weight="686">
                    <tspan x="2" y="11">OG</tspan>
                </text>
            </g>
        </g>
    </g>
</svg>